<?xml version="1.0" encoding="UTF-8"?>
<svg version="1.1" xmlns="http://www.w3.org/2000/svg" width="96" height="96">
<path d="M0 0 C31.68 0 63.36 0 96 0 C96 31.68 96 63.36 96 96 C64.32 96 32.64 96 0 96 C0 64.32 0 32.64 0 0 Z " fill="#A4E0C6" transform="translate(0,0)"/>
<path d="M0 0 C2.4375 1.375 2.4375 1.375 4 3 C4 3.66 4 4.32 4 5 C4.85722656 4.67515625 5.71445312 4.3503125 6.59765625 4.015625 C12.71790903 2.27357669 19.13175881 2.71214663 25.4375 2.75 C26.72205078 2.74226563 28.00660156 2.73453125 29.33007812 2.7265625 C35.89805464 2.74009774 41.72716975 3.0015762 48 5 C48.28875 4.360625 48.5775 3.72125 48.875 3.0625 C50 1 50 1 52 0 C55.65546065 -0.40616229 57.58917682 -0.21434253 60.875 1.5 C63.12300438 4.14471103 63.36639795 4.76495861 63.5 8.0625 C62.97675251 12.18307401 62.7958245 12.44729067 60 15 C60.26095544 17.67479327 60.8004757 19.60095141 62 22 C62.27152729 26.03588297 62.23170147 30.08102578 62.25 34.125 C62.270625 35.24132813 62.29125 36.35765625 62.3125 37.5078125 C62.3541995 46.34810616 61.29033203 53.69166627 54.89648438 60.27392578 C47.11528701 67.35593729 38.2767459 67.79272434 28.26855469 67.65185547 C26.00285705 67.62503382 23.74211017 67.65170536 21.4765625 67.68359375 C12.18183354 67.70608742 4.25371922 66.78164197 -2.89648438 60.27392578 C-9.24295632 53.74043803 -10.36654946 46.38775227 -10.36132812 37.60546875 C-10.34521484 36.49816406 -10.32910156 35.39085937 -10.3125 34.25 C-10.31572266 33.12722656 -10.31894531 32.00445312 -10.32226562 30.84765625 C-10.26534836 22.18588262 -10.26534836 22.18588262 -8 18 C-8.35172998 15.01029519 -8.82711465 14.17288535 -11 12 C-11.67039106 5.0726257 -11.67039106 5.0726257 -9.4375 1.5 C-6.0761612 -0.56851618 -3.88040089 -0.48505011 0 0 Z " fill="#CB9468" transform="translate(22,17)"/>
<path d="M0 0 C2.4375 1.375 2.4375 1.375 4 3 C4 3.66 4 4.32 4 5 C4.85722656 4.67515625 5.71445312 4.3503125 6.59765625 4.015625 C12.71790903 2.27357669 19.13175881 2.71214663 25.4375 2.75 C26.72205078 2.74226563 28.00660156 2.73453125 29.33007812 2.7265625 C35.89805464 2.74009774 41.72716975 3.0015762 48 5 C48.28875 4.360625 48.5775 3.72125 48.875 3.0625 C50 1 50 1 52 0 C55.65546065 -0.40616229 57.58917682 -0.21434253 60.875 1.5 C63.12300438 4.14471103 63.36639795 4.76495861 63.5 8.0625 C62.97675251 12.18307401 62.7958245 12.44729067 60 15 C60.26095544 17.67479327 60.8004757 19.60095141 62 22 C62.27152729 26.03588297 62.23170147 30.08102578 62.25 34.125 C62.270625 35.24132813 62.29125 36.35765625 62.3125 37.5078125 C62.3541995 46.34810616 61.29033203 53.69166627 54.89648438 60.27392578 C47.11528701 67.35593729 38.2767459 67.79272434 28.26855469 67.65185547 C26.00285705 67.62503382 23.74211017 67.65170536 21.4765625 67.68359375 C12.18183354 67.70608742 4.25371922 66.78164197 -2.89648438 60.27392578 C-9.24295632 53.74043803 -10.36654946 46.38775227 -10.36132812 37.60546875 C-10.34521484 36.49816406 -10.32910156 35.39085937 -10.3125 34.25 C-10.31572266 33.12722656 -10.31894531 32.00445312 -10.32226562 30.84765625 C-10.26534836 22.18588262 -10.26534836 22.18588262 -8 18 C-8.35172998 15.01029519 -8.82711465 14.17288535 -11 12 C-11.67039106 5.0726257 -11.67039106 5.0726257 -9.4375 1.5 C-6.0761612 -0.56851618 -3.88040089 -0.48505011 0 0 Z M5 8 C4.54625 8.969375 4.0925 9.93875 3.625 10.9375 C2 14 2 14 -1.5 15.4375 C-5.2824091 17.12607549 -5.97481697 18.06061327 -7.42431641 21.81762695 C-8.56033084 26.12417191 -8.47054013 30.44762243 -8.4375 34.875 C-8.45748047 35.81730469 -8.47746094 36.75960937 -8.49804688 37.73046875 C-8.49260862 45.59418619 -6.71766387 51.69473313 -1.6875 57.8125 C7.1202789 64.98162236 14.58635197 65.22758732 25.625 65.3125 C26.85863281 65.34150391 28.09226563 65.37050781 29.36328125 65.40039062 C38.40901277 65.46287442 45.88775987 64.49977883 52.9375 58.5 C53.618125 57.675 54.29875 56.85 55 56 C55.556875 55.360625 56.11375 54.72125 56.6875 54.0625 C60.47107123 48.11688807 60.36588048 41.93727791 60.375 35.125 C60.41173828 33.69220703 60.41173828 33.69220703 60.44921875 32.23046875 C60.4741169 26.18021727 59.8879289 20.87240247 56 16 C53.69855891 14.92863949 51.3659787 13.92010283 49 13 C48.31246699 11.34183216 47.64438717 9.67540664 47 8 C42.54943591 6.06269073 38.62603685 5.74317111 33.80859375 5.734375 C32.80699974 5.73150482 32.80699974 5.73150482 31.78517151 5.72857666 C30.38257467 5.7272236 28.97996492 5.73085821 27.57739258 5.73925781 C25.43997941 5.74998755 23.3034033 5.73932449 21.16601562 5.7265625 C19.79687316 5.72788392 18.42773121 5.73044596 17.05859375 5.734375 C15.20705688 5.73775879 15.20705688 5.73775879 13.31811523 5.74121094 C10.06479973 5.99494609 7.85791352 6.44498274 5 8 Z " fill="#563F34" transform="translate(22,17)"/>
<path d="M0 0 C0.97195312 -0.01933594 1.94390625 -0.03867187 2.9453125 -0.05859375 C7.34259643 -0.0286395 10.98372936 0.07685817 14.64453125 2.69140625 C17.62871759 6.40802971 17.77667501 8.46122446 17.6875 13.1875 C17.69330078 15.13849609 17.69330078 15.13849609 17.69921875 17.12890625 C17 20.625 17 20.625 15.20703125 23.05859375 C10.2305119 25.48926885 5.46228904 25.20321894 0 25.125 C-1.62035156 25.14820313 -1.62035156 25.14820313 -3.2734375 25.171875 C-7.79047272 25.14956865 -11.11407689 25.05771031 -15.20703125 23.05859375 C-17.68933588 19.68936546 -17.69985914 17.34428971 -17.6875 13.1875 C-17.71199219 11.88941406 -17.73648437 10.59132813 -17.76171875 9.25390625 C-16.97927351 5.52625688 -16.12944709 3.75193451 -12.99926758 1.51635742 C-8.83375515 -0.3408029 -4.48243483 -0.08917311 0 0 Z " fill="#AB7B55" transform="translate(48,45.375)"/>
<path d="M0 0 C0.99 0.33 1.98 0.66 3 1 C2.01 1.66 1.02 2.32 0 3 C-0.36362818 5.20725073 -0.36362818 5.20725073 -0.1875 7.625 C-0.14689453 8.85089844 -0.14689453 8.85089844 -0.10546875 10.1015625 C-0.07066406 10.72804688 -0.03585937 11.35453125 0 12 C1.98 12.66 3.96 13.32 6 14 C5.360625 14.928125 4.72125 15.85625 4.0625 16.8125 C0.45685168 22.38486559 0.75075666 27.18968895 0.6875 33.625 C0.65849609 34.58535156 0.62949219 35.54570313 0.59960938 36.53515625 C0.52870578 44.57453361 2.21518605 50.62890943 7.375 56.875 C15.59449196 63.52887444 23.49631432 63.23458703 33.625 63.3125 C34.85863281 63.34150391 36.09226563 63.37050781 37.36328125 63.40039062 C46.36882275 63.46259681 53.59492753 62.35168558 60.875 56.8125 C66.39948613 49.50068012 67.60733687 42.77445328 67.375 33.75 C67.37371094 32.78320312 67.37242188 31.81640625 67.37109375 30.8203125 C67.3124113 26.08659479 67.12184482 22.3194698 65 18 C64.875 15.1875 64.875 15.1875 65 13 C66.32 12.34 67.64 11.68 69 11 C68.79375 11.9075 68.5875 12.815 68.375 13.75 C67.70992091 16.86111061 67.70992091 16.86111061 68.95776367 18.85449219 C71.08107452 23.22545862 70.32618888 28.48079309 70.3125 33.25 C70.32861328 34.35730469 70.34472656 35.46460938 70.36132812 36.60546875 C70.36654946 45.38775227 69.24295632 52.74043803 62.89648438 59.27392578 C55.11528701 66.35593729 46.2767459 66.79272434 36.26855469 66.65185547 C34.00285705 66.62503382 31.74211017 66.65170536 29.4765625 66.68359375 C20.18183354 66.70608742 12.25371922 65.78164197 5.10351562 59.27392578 C-1.24295632 52.74043803 -2.36654946 45.38775227 -2.36132812 36.60546875 C-2.34521484 35.49816406 -2.32910156 34.39085937 -2.3125 33.25 C-2.31572266 32.12722656 -2.31894531 31.00445312 -2.32226562 29.84765625 C-2.26534836 21.18588262 -2.26534836 21.18588262 0 17 C-0.35172998 14.01029519 -0.82711465 13.17288535 -3 11 C-3.57416268 3.76555024 -3.57416268 3.76555024 -1.5 1 C-1.005 0.67 -0.51 0.34 0 0 Z " fill="#503D34" transform="translate(14,18)"/>
<path d="M0 0 C0.391875 0.53625 0.78375 1.0725 1.1875 1.625 C1.785625 2.40875 2.38375 3.1925 3 4 C3.680625 4.969375 4.36125 5.93875 5.0625 6.9375 C9.52610285 12.09719394 15.11231255 14.63814407 21.84008789 15.48120117 C25.47211062 15.69171103 29.09451568 15.70304655 32.73144531 15.65185547 C34.99714295 15.62503382 37.25788983 15.65170536 39.5234375 15.68359375 C47.78444737 15.7043788 55.18945635 15.22067078 62 10 C64.27992994 7.4709195 66.14172216 4.84391845 68 2 C68.66 1.34 69.32 0.68 70 0 C70 2.97 70 5.94 70 9 C69.01 9 68.02 9 67 9 C66.443125 10.0828125 66.443125 10.0828125 65.875 11.1875 C63.1784609 15.23230865 59.42683759 17.11538617 55 19 C54.01 19 53.02 19 52 19 C52 19.66 52 20.32 52 21 C40.78 21 29.56 21 18 21 C18 20.34 18 19.68 18 19 C17.319375 18.896875 16.63875 18.79375 15.9375 18.6875 C7.16219983 16.63370634 7.16219983 16.63370634 4.21875 12.49609375 C0 5.02373231 0 5.02373231 0 0 Z " fill="#8FC4AC" transform="translate(13,68)"/>
<path d="M0 0 C0.474375 0.70125 0.94875 1.4025 1.4375 2.125 C6.54971217 7.86065268 12.41029152 11.71818205 20.14111328 12.19287109 C23.42665941 12.26481736 26.71090523 12.32201726 29.99707031 12.35009766 C31.40511701 12.36657549 32.81308292 12.39375715 34.22070312 12.43212891 C42.99580959 12.66946128 50.71186046 12.4734627 58 7 C60.04666665 4.75118259 61.44633024 2.64123859 63 0 C63.495 1.485 63.495 1.485 64 3 C60.37571326 9.52371613 55.4135298 13.30671143 48.25317383 15.54638672 C43.03095892 16.59773305 37.55644033 16.22838517 32.25 16.25 C30.99960937 16.270625 29.74921875 16.29125 28.4609375 16.3125 C18.42421508 16.35493857 10.64603619 14.87738705 3 8 C0.77135387 4.98054395 0 3.75856468 0 0 Z " fill="#A47751" transform="translate(16,66)"/>
<path d="M0 0 C0.99 0.66 1.98 1.32 3 2 C3.37331109 5.42201828 3.63763183 7.90185629 1.875 10.9375 C-0.88980433 12.50422245 -2.88188517 12.38976435 -6 12 C-7.875 10.875 -7.875 10.875 -9 9 C-9.39365568 5.85075452 -9.52854531 3.88090884 -7.875 1.125 C-5.14747535 -0.51151479 -3.12026907 -0.32502803 0 0 Z " fill="#AA7B54" transform="translate(80,19)"/>
<path d="M0 0 C1.875 1.125 1.875 1.125 3 3 C3.39365568 6.14924548 3.52854531 8.11909116 1.875 10.875 C-0.88090884 12.52854531 -2.85075452 12.39365568 -6 12 C-7.875 10.9375 -7.875 10.9375 -9 9 C-9.375 5.4375 -9.375 5.4375 -9 2 C-5.53076119 -0.31282587 -4.07794425 -0.42478586 0 0 Z " fill="#AB7B55" transform="translate(22,19)"/>
<path d="M0 0 C6.35051546 -0.36637589 6.35051546 -0.36637589 9.4375 1.375 C11 3 11 3 11 5 C12.01006104 4.67402832 13.02012207 4.34805664 14.06079102 4.01220703 C17.76925548 2.956503 21.15909003 2.77030302 25.02734375 2.8046875 C26.95610352 2.81435547 26.95610352 2.81435547 28.92382812 2.82421875 C30.26172154 2.84092399 31.59961217 2.85785381 32.9375 2.875 C34.30272783 2.88504678 35.6679628 2.89416964 37.03320312 2.90234375 C40.35565199 2.92582395 43.67773321 2.95866641 47 3 C47 3.33 47 3.66 47 4 C46.17798096 4.01458252 45.35596191 4.02916504 44.5090332 4.04418945 C40.77638677 4.11876333 37.04462541 4.21539512 33.3125 4.3125 C32.01892578 4.33505859 30.72535156 4.35761719 29.39257812 4.38085938 C27.52182617 4.4340332 27.52182617 4.4340332 25.61328125 4.48828125 C23.89298706 4.52755737 23.89298706 4.52755737 22.13793945 4.56762695 C18.7198966 5.03859512 16.84318108 6.11281071 14 8 C13.34 8 12.68 8 12 8 C11.773125 8.94875 11.54625 9.8975 11.3125 10.875 C10 14 10 14 7.5625 15.5 C5 16 5 16 2 14 C2.969375 13.690625 3.93875 13.38125 4.9375 13.0625 C7.84065792 12.30476658 7.84065792 12.30476658 9 11 C9.25005386 8.04182893 9.25005386 8.04182893 9 5 C6.3144406 2.3144406 3.62378672 1.93950026 0 1 C0 0.67 0 0.34 0 0 Z " fill="#656152" transform="translate(15,17)"/>
<path d="M0 0 C4.3749437 -0.05826088 8.74978698 -0.09368457 13.125 -0.125 C14.3625 -0.14175781 15.6 -0.15851562 16.875 -0.17578125 C18.07382812 -0.18222656 19.27265625 -0.18867188 20.5078125 -0.1953125 C21.60754395 -0.20578613 22.70727539 -0.21625977 23.84033203 -0.22705078 C27.18456942 0.01326299 29.87708695 0.81090663 33 2 C32.67 2.99 32.34 3.98 32 5 C30.948125 4.68289062 29.89625 4.36578125 28.8125 4.0390625 C22.94263592 2.57159648 17.02189223 2.5405503 11 2.375 C9.84371094 2.33632813 8.68742187 2.29765625 7.49609375 2.2578125 C4.6642152 2.16419668 1.83233206 2.07846325 -1 2 C-0.67 1.34 -0.34 0.68 0 0 Z " fill="#D3A67F" transform="translate(36,23)"/>
<path d="M0 0 C0.99 0.33 1.98 0.66 3 1 C2.01 1.66 1.02 2.32 0 3 C-0.36362818 5.20725073 -0.36362818 5.20725073 -0.1875 7.625 C-0.14689453 8.85089844 -0.14689453 8.85089844 -0.10546875 10.1015625 C-0.07066406 10.72804688 -0.03585937 11.35453125 0 12 C1.98 12.66 3.96 13.32 6 14 C5.360625 14.928125 4.72125 15.85625 4.0625 16.8125 C1.91377907 19.84219943 1.91377907 19.84219943 1 23 C0.34 23 -0.32 23 -1 23 C-1.33 23.66 -1.66 24.32 -2 25 C-1.5205599 22.05486796 -1.05275267 19.18903042 -0.25 16.3125 C-0.1675 15.549375 -0.085 14.78625 0 14 C-0.474375 13.566875 -0.94875 13.13375 -1.4375 12.6875 C-3.70675145 10.23670844 -3.4119074 8.11542359 -3.3046875 4.875 C-3 3 -3 3 -1.5 1 C-1.005 0.67 -0.51 0.34 0 0 Z " fill="#574439" transform="translate(14,18)"/>
<path d="M0 0 C2.94082123 0.63017598 5.32031473 1.66015736 8 3 C8.66 3 9.32 3 10 3 C10 2.34 10 1.68 10 1 C11.32 0.67 12.64 0.34 14 0 C12.7934375 1.2684375 12.7934375 1.2684375 11.5625 2.5625 C8.78371338 5.8515158 8.25882224 8.68629604 8 13 C7.34 13 6.68 13 6 13 C5.9071875 11.453125 5.9071875 11.453125 5.8125 9.875 C4.81451343 5.11537173 3.29509133 3.46407037 0 0 Z " fill="#5C4032" transform="translate(41,55)"/>
<path d="M0 0 C0.33 0.66 0.66 1.32 1 2 C-0.7015625 2.6496875 -0.7015625 2.6496875 -2.4375 3.3125 C-3.613125 3.869375 -4.78875 4.42625 -6 5 C-6.33 5.99 -6.66 6.98 -7 8 C-7.66 8 -8.32 8 -9 8 C-9.22223194 5.25913944 -9.34781139 3.56036279 -7.875 1.1875 C-5.22464043 -0.49106106 -3.06753576 -0.20450238 0 0 Z " fill="#C69165" transform="translate(80,19)"/>
<path d="M0 0 C3.125 0.25 3.125 0.25 5 1.5 C6.125 3.25 6.125 3.25 6.125 7.25 C5.465 7.25 4.805 7.25 4.125 7.25 C2.79166667 5.91666667 1.45833333 4.58333333 0.125 3.25 C-2.00809192 2.01487921 -2.00809192 2.01487921 -3.875 1.25 C-2.875 0.25 -2.875 0.25 0 0 Z " fill="#C79265" transform="translate(18.875,18.75)"/>
<path d="M0 0 C0.33 0 0.66 0 1 0 C1.0809313 2.60478883 1.14045434 5.20706653 1.1875 7.8125 C1.21263672 8.55048828 1.23777344 9.28847656 1.26367188 10.04882812 C1.33834499 15.54974762 1.33834499 15.54974762 -0.51171875 18.01171875 C-1.24841797 18.50091797 -1.24841797 18.50091797 -2 19 C-1.855625 17.906875 -1.71125 16.81375 -1.5625 15.6875 C-0.90689307 10.470742 -0.45251777 5.23765253 0 0 Z " fill="#4E372E" transform="translate(82,52)"/>
<path d="M0 0 C0.99 0.33 1.98 0.66 3 1 C2.67 1.66 2.34 2.32 2 3 C2.66 3 3.32 3 4 3 C4 3.99 4 4.98 4 6 C2.35 5.67 0.7 5.34 -1 5 C-0.67 3.35 -0.34 1.7 0 0 Z " fill="#16110E" transform="translate(29,37)"/>
<path d="M0 0 C0.99 0.33 1.98 0.66 3 1 C2.67 1.66 2.34 2.32 2 3 C2.66 3 3.32 3 4 3 C3.67 3.99 3.34 4.98 3 6 C1.68 6 0.36 6 -1 6 C-1.042721 4.33388095 -1.04063832 2.66617115 -1 1 C-0.67 0.67 -0.34 0.34 0 0 Z " fill="#17130F" transform="translate(64,37)"/>
<path d="M0 0 C6.4 -0.49230769 6.4 -0.49230769 9.4375 2 C10.2109375 2.99 10.2109375 2.99 11 4 C8.04725901 4 6.50941597 3.56108169 3.8125 2.5 C3.09707031 2.2215625 2.38164062 1.943125 1.64453125 1.65625 C1.10183594 1.4396875 0.55914062 1.223125 0 1 C0 0.67 0 0.34 0 0 Z " fill="#604E40" transform="translate(15,17)"/>
<path d="M0 0 C0.6875 1.75 0.6875 1.75 1 4 C-0.4375 6.25 -0.4375 6.25 -2 8 C-2.6875 5.6875 -2.6875 5.6875 -3 3 C-1.5625 1.1875 -1.5625 1.1875 0 0 Z " fill="#8FBBA6" transform="translate(84,29)"/>
<path d="M0 0 C1.32 0.99 2.64 1.98 4 3 C3.67 4.65 3.34 6.3 3 8 C0.4345406 5.4345406 0.45953913 3.52313332 0 0 Z " fill="#8DBCA6" transform="translate(11,29)"/>
</svg>
